<mxfile host="Electron" agent="Mozilla/5.0 (Windows NT 10.0; Win64; x64) AppleWebKit/537.36 (KHTML, like Gecko) draw.io/26.0.9 Chrome/128.0.6613.186 Electron/32.2.5 Safari/537.36" version="26.0.9">
  <diagram id="yUQEhMzAdgBt0Okl2EkC" name="Page-1">
    <mxGraphModel dx="1477" dy="863" grid="1" gridSize="10" guides="1" tooltips="1" connect="1" arrows="1" fold="1" page="1" pageScale="1" pageWidth="850" pageHeight="1100" math="0" shadow="0">
      <root>
        <mxCell id="0" />
        <mxCell id="1" parent="0" />
        <mxCell id="57" value="" style="rounded=0;whiteSpace=wrap;html=1;fillColor=light-dark(#FFFFFF,#E6E6E6);strokeColor=light-dark(#000000,#000000);" parent="1" vertex="1">
          <mxGeometry y="60" width="850" height="1010" as="geometry" />
        </mxCell>
        <mxCell id="49" value="" style="endArrow=classic;html=1;exitX=0.5;exitY=1;exitDx=0;exitDy=0;entryX=0.5;entryY=0;entryDx=0;entryDy=0;rounded=0;strokeColor=light-dark(#000000,#000000);" parent="1" source="3" target="27" edge="1">
          <mxGeometry width="50" height="50" relative="1" as="geometry">
            <mxPoint x="460" y="375" as="sourcePoint" />
            <mxPoint x="510" y="325" as="targetPoint" />
            <Array as="points">
              <mxPoint x="485" y="525" />
              <mxPoint x="578" y="525" />
            </Array>
          </mxGeometry>
        </mxCell>
        <mxCell id="48" value="" style="endArrow=classic;html=1;exitX=0.5;exitY=1;exitDx=0;exitDy=0;entryX=0.5;entryY=0;entryDx=0;entryDy=0;rounded=0;strokeColor=light-dark(#000000,#000000);" parent="1" source="3" target="25" edge="1">
          <mxGeometry width="50" height="50" relative="1" as="geometry">
            <mxPoint x="460" y="335" as="sourcePoint" />
            <mxPoint x="390" y="505" as="targetPoint" />
            <Array as="points">
              <mxPoint x="485" y="525" />
              <mxPoint x="393" y="525" />
            </Array>
          </mxGeometry>
        </mxCell>
        <mxCell id="2" value="poc.db" style="shape=cylinder3;whiteSpace=wrap;html=1;boundedLbl=1;backgroundOutline=1;size=15;fillColor=light-dark(#FFFFFF,#3399FF);fontColor=#FFFFFF;strokeColor=light-dark(#000000,#000000);" parent="1" vertex="1">
          <mxGeometry x="720" y="225" width="90" height="60" as="geometry" />
        </mxCell>
        <mxCell id="50" style="edgeStyle=none;html=1;exitX=0.5;exitY=1;exitDx=0;exitDy=0;entryX=0.5;entryY=0;entryDx=0;entryDy=0;strokeColor=light-dark(#000000,#000000);" parent="1" source="3" target="26" edge="1">
          <mxGeometry relative="1" as="geometry" />
        </mxCell>
        <mxCell id="3" value="GetService" style="rounded=0;whiteSpace=wrap;html=1;fillColor=light-dark(#FFFFFF,#CC00CC);fontColor=#FFFFFF;strokeColor=light-dark(#000000,#000000);" parent="1" vertex="1">
          <mxGeometry x="425" y="95" width="120" height="60" as="geometry" />
        </mxCell>
        <mxCell id="12" style="edgeStyle=none;html=1;exitX=1;exitY=0.5;exitDx=0;exitDy=0;entryX=0.5;entryY=0;entryDx=0;entryDy=0;strokeColor=light-dark(#000000,#000000);" parent="1" source="4" target="11" edge="1">
          <mxGeometry relative="1" as="geometry">
            <Array as="points">
              <mxPoint x="610" y="255" />
            </Array>
          </mxGeometry>
        </mxCell>
        <mxCell id="4" value="PostService" style="rounded=0;whiteSpace=wrap;html=1;fillColor=light-dark(#FFFFFF,#CC00CC);fontColor=#FFFFFF;strokeColor=light-dark(#000000,#000000);" parent="1" vertex="1">
          <mxGeometry x="425" y="225" width="120" height="60" as="geometry" />
        </mxCell>
        <mxCell id="7" value="" style="endArrow=classic;html=1;exitX=0.5;exitY=0;exitDx=0;exitDy=0;exitPerimeter=0;entryX=1;entryY=0.5;entryDx=0;entryDy=0;strokeColor=light-dark(#000000,#000000);" parent="1" source="2" target="3" edge="1">
          <mxGeometry width="50" height="50" relative="1" as="geometry">
            <mxPoint x="645" y="175" as="sourcePoint" />
            <mxPoint x="695" y="125" as="targetPoint" />
            <Array as="points">
              <mxPoint x="765" y="125" />
            </Array>
          </mxGeometry>
        </mxCell>
        <mxCell id="14" style="edgeStyle=none;html=1;exitX=1;exitY=0.75;exitDx=0;exitDy=0;entryX=0;entryY=0.5;entryDx=0;entryDy=0;strokeColor=light-dark(#000000,#000000);" parent="1" source="11" target="13" edge="1">
          <mxGeometry relative="1" as="geometry" />
        </mxCell>
        <mxCell id="52" style="edgeStyle=none;html=1;exitX=0;exitY=0.5;exitDx=0;exitDy=0;entryX=0.5;entryY=0;entryDx=0;entryDy=0;strokeColor=light-dark(#000000,#000000);rounded=0;" parent="1" source="11" target="26" edge="1">
          <mxGeometry relative="1" as="geometry">
            <Array as="points">
              <mxPoint x="485" y="365" />
            </Array>
          </mxGeometry>
        </mxCell>
        <mxCell id="11" value="Fila RabbitMQ" style="rounded=0;whiteSpace=wrap;html=1;fillColor=light-dark(#FFFFFF,#FF8000);fontColor=#FFFFFF;strokeColor=light-dark(#000000,#000000);" parent="1" vertex="1">
          <mxGeometry x="580" y="285" width="60" height="160" as="geometry" />
        </mxCell>
        <mxCell id="13" value="QueueConsumer" style="rounded=0;whiteSpace=wrap;html=1;fillColor=light-dark(#FFFFFF,#CC00CC);fontColor=#FFFFFF;strokeColor=light-dark(#000000,#000000);" parent="1" vertex="1">
          <mxGeometry x="705" y="375" width="120" height="60" as="geometry" />
        </mxCell>
        <mxCell id="15" style="edgeStyle=none;html=1;exitX=0.5;exitY=0;exitDx=0;exitDy=0;entryX=0.5;entryY=1;entryDx=0;entryDy=0;entryPerimeter=0;strokeColor=light-dark(#000000,#000000);" parent="1" source="13" target="2" edge="1">
          <mxGeometry relative="1" as="geometry" />
        </mxCell>
        <mxCell id="19" value="Requisições HTTP" style="ellipse;shape=cloud;whiteSpace=wrap;html=1;fillColor=light-dark(#FFFFFF,#00CC00);fontColor=#FFFFFF;strokeColor=light-dark(#000000,#000000);" parent="1" vertex="1">
          <mxGeometry x="70" y="256.25" width="155" height="80" as="geometry" />
        </mxCell>
        <mxCell id="20" value="" style="endArrow=classic;html=1;exitX=0.928;exitY=0.948;exitDx=0;exitDy=0;exitPerimeter=0;entryX=0;entryY=0.5;entryDx=0;entryDy=0;strokeColor=light-dark(#000000,#000000);" parent="1" source="54" target="3" edge="1">
          <mxGeometry width="50" height="50" relative="1" as="geometry">
            <mxPoint x="324.6400000000001" y="125.24000000000001" as="sourcePoint" />
            <mxPoint x="935" y="205" as="targetPoint" />
          </mxGeometry>
        </mxCell>
        <mxCell id="21" value="" style="endArrow=classic;html=1;entryX=0;entryY=0.5;entryDx=0;entryDy=0;exitX=0.604;exitY=1.01;exitDx=0;exitDy=0;exitPerimeter=0;strokeColor=light-dark(#000000,#000000);" parent="1" source="54" target="4" edge="1">
          <mxGeometry width="50" height="50" relative="1" as="geometry">
            <mxPoint x="325.8399999999999" y="255.01999999999998" as="sourcePoint" />
            <mxPoint x="445" y="205" as="targetPoint" />
          </mxGeometry>
        </mxCell>
        <mxCell id="24" value="" style="endArrow=none;dashed=1;html=1;dashPattern=1 3;strokeWidth=2;fillColor#FFFFFF);strokeColor=light-dark(#000000,#000000);" parent="1" edge="1">
          <mxGeometry width="50" height="50" relative="1" as="geometry">
            <mxPoint x="10" y="635" as="sourcePoint" />
            <mxPoint x="840" y="635" as="targetPoint" />
          </mxGeometry>
        </mxCell>
        <mxCell id="39" style="edgeStyle=none;html=1;exitX=0.5;exitY=1;exitDx=0;exitDy=0;entryX=0.5;entryY=0;entryDx=0;entryDy=0;strokeColor=light-dark(#000000,#000000);" parent="1" source="26" target="35" edge="1">
          <mxGeometry relative="1" as="geometry" />
        </mxCell>
        <mxCell id="26" value="Métricas" style="shape=hexagon;perimeter=hexagonPerimeter2;whiteSpace=wrap;html=1;fixedSize=1;size=15;fillColor=light-dark(#FFFFFF,#00CC00);fontColor=#FFFFFF;strokeColor=light-dark(#000000,#000000);" parent="1" vertex="1">
          <mxGeometry x="452.5" y="545" width="65" height="40" as="geometry" />
        </mxCell>
        <mxCell id="40" style="edgeStyle=none;html=1;exitX=0.5;exitY=1;exitDx=0;exitDy=0;entryX=0.5;entryY=0;entryDx=0;entryDy=0;strokeColor=light-dark(#000000,#000000);" parent="1" source="27" target="36" edge="1">
          <mxGeometry relative="1" as="geometry" />
        </mxCell>
        <mxCell id="27" value="Traces" style="shape=hexagon;perimeter=hexagonPerimeter2;whiteSpace=wrap;html=1;fixedSize=1;size=15;fillColor=light-dark(#FFFFFF,#00CC00);fontColor=#FFFFFF;strokeColor=light-dark(#000000,#000000);" parent="1" vertex="1">
          <mxGeometry x="545" y="545" width="65" height="40" as="geometry" />
        </mxCell>
        <mxCell id="34" value="Loki" style="rounded=0;whiteSpace=wrap;html=1;fillColor=light-dark(#FFFFFF,#FF8000);fontColor=#FFFFFF;strokeColor=light-dark(#000000,#000000);" parent="1" vertex="1">
          <mxGeometry x="270" y="655" width="120" height="60" as="geometry" />
        </mxCell>
        <mxCell id="35" value="OpenTelemetry" style="rounded=0;whiteSpace=wrap;html=1;fillColor=light-dark(#FFFFFF,#FF8000);fontColor=#FFFFFF;strokeColor=light-dark(#000000,#000000);" parent="1" vertex="1">
          <mxGeometry x="425" y="655" width="120" height="60" as="geometry" />
        </mxCell>
        <mxCell id="36" value="Tempo" style="rounded=0;whiteSpace=wrap;html=1;fillColor=light-dark(#FFFFFF,#FF8000);fontColor=#FFFFFF;strokeColor=light-dark(#000000,#000000);" parent="1" vertex="1">
          <mxGeometry x="580" y="655" width="120" height="60" as="geometry" />
        </mxCell>
        <mxCell id="38" value="" style="endArrow=classic;html=1;exitX=0.5;exitY=1;exitDx=0;exitDy=0;entryX=0.5;entryY=0;entryDx=0;entryDy=0;strokeColor=light-dark(#000000,#000000);" parent="1" source="25" target="34" edge="1">
          <mxGeometry width="50" height="50" relative="1" as="geometry">
            <mxPoint x="630" y="705" as="sourcePoint" />
            <mxPoint x="680" y="655" as="targetPoint" />
          </mxGeometry>
        </mxCell>
        <mxCell id="41" value="GRAFANA" style="rounded=0;whiteSpace=wrap;html=1;fillColor=light-dark(#FFFFFF,#FF8000);fontColor=#FFFFFF;strokeColor=light-dark(#000000,#000000);" parent="1" vertex="1">
          <mxGeometry x="270" y="775" width="430" height="60" as="geometry" />
        </mxCell>
        <mxCell id="42" value="" style="shape=flexArrow;endArrow=classic;html=1;strokeColor=light-dark(#000000,#000000);" parent="1" edge="1">
          <mxGeometry width="50" height="50" relative="1" as="geometry">
            <mxPoint x="330" y="715" as="sourcePoint" />
            <mxPoint x="330" y="775" as="targetPoint" />
          </mxGeometry>
        </mxCell>
        <mxCell id="43" value="" style="shape=flexArrow;endArrow=classic;html=1;exitX=0.5;exitY=1;exitDx=0;exitDy=0;strokeColor=light-dark(#000000,#000000);" parent="1" source="35" edge="1">
          <mxGeometry width="50" height="50" relative="1" as="geometry">
            <mxPoint x="484.82" y="715" as="sourcePoint" />
            <mxPoint x="485" y="775" as="targetPoint" />
          </mxGeometry>
        </mxCell>
        <mxCell id="44" value="" style="shape=flexArrow;endArrow=classic;html=1;strokeColor=light-dark(#000000,#000000);" parent="1" edge="1">
          <mxGeometry width="50" height="50" relative="1" as="geometry">
            <mxPoint x="639.8199999999999" y="715" as="sourcePoint" />
            <mxPoint x="639.8199999999999" y="775" as="targetPoint" />
          </mxGeometry>
        </mxCell>
        <mxCell id="45" value="" style="image;html=1;image=img/lib/clip_art/computers/Monitor_128x128.png" parent="1" vertex="1">
          <mxGeometry x="445" y="925" width="80" height="80" as="geometry" />
        </mxCell>
        <mxCell id="46" value="" style="shape=flexArrow;endArrow=classic;startArrow=classic;html=1;entryX=0.5;entryY=1;entryDx=0;entryDy=0;exitX=0.5;exitY=0;exitDx=0;exitDy=0;strokeColor=light-dark(#000000,#000000);" parent="1" source="45" target="41" edge="1">
          <mxGeometry width="100" height="100" relative="1" as="geometry">
            <mxPoint x="470" y="895" as="sourcePoint" />
            <mxPoint x="570" y="795" as="targetPoint" />
          </mxGeometry>
        </mxCell>
        <mxCell id="54" value="OCELOT GATEWAY" style="rounded=0;whiteSpace=wrap;html=1;fontColor=#FFFFFF;fillColor=light-dark(#FFFFFF,#CC00CC);rotation=-90;strokeColor=light-dark(#000000,#000000);" parent="1" vertex="1">
          <mxGeometry x="91.25" y="266.25" width="397.5" height="60" as="geometry" />
        </mxCell>
        <mxCell id="56" value="" style="endArrow=classic;startArrow=classic;html=1;exitX=0.875;exitY=0.5;exitDx=0;exitDy=0;exitPerimeter=0;entryX=0.5;entryY=0;entryDx=0;entryDy=0;strokeColor=light-dark(#000000,#000000);" parent="1" source="19" target="54" edge="1">
          <mxGeometry width="50" height="50" relative="1" as="geometry">
            <mxPoint x="170" y="335" as="sourcePoint" />
            <mxPoint x="220" y="285" as="targetPoint" />
          </mxGeometry>
        </mxCell>
        <mxCell id="58" value="CLIENTE" style="text;html=1;align=center;verticalAlign=middle;whiteSpace=wrap;rounded=0;fontColor=#FFFFFF" parent="1" vertex="1">
          <mxGeometry x="10" y="590" width="60" height="30" as="geometry" />
        </mxCell>
        <mxCell id="59" value="SERVIDOR" style="text;html=1;align=center;verticalAlign=middle;whiteSpace=wrap;rounded=0;fontColor=#FFFFFF" parent="1" vertex="1">
          <mxGeometry x="10" y="650" width="70" height="30" as="geometry" />
        </mxCell>
        <mxCell id="25" value="Logs" style="shape=hexagon;perimeter=hexagonPerimeter2;whiteSpace=wrap;html=1;fixedSize=1;size=15;fillColor=light-dark(#FFFFFF,#00CC00);fontColor=#FFFFFF;strokeColor=light-dark(#000000,#000000);" parent="1" vertex="1">
          <mxGeometry x="360" y="545" width="65" height="40" as="geometry" />
        </mxCell>
      </root>
    </mxGraphModel>
  </diagram>
</mxfile>
